# xmcd
#
# Track frame offsets:
#	150
#	16090
#	29102
#	47144
#	60010
#	76195
#	89808
#	105944
#	121036
#	138320
#	154369
#	172195
#	189101
#	203726
#	219801
#	231594
#	248046
#	264227
#	279848
#
# Disc length: 3933 seconds
#
# Revision: 2
# Processed by: cddbd v1.5.2PL0 Copyright (c) Steve Scherf et al.
# Submitted via: audiograbber 1.83.01
#
DISCID=f40f5b13
DTITLE=Various Artist - Promo Only Country Radio August 2008
DYEAR=2008
DGENRE=Country
TTITLE0=Sugarland - All I Want To Do
TTITLE1=George Strait - Troubadour (Album Version)
TTITLE2=Rascal Flatts - Bob That Head
TTITLE3=Jessica Simpson - Come On Over
TTITLE4=Toby Keith - She Never Cried In Front Of Me
TTITLE5=Lady Antebellum - Lookin' For A Good Time
TTITLE6=Lee Brice - Upper Middle Class White Trash
TTITLE7=Jewel - I Do
TTITLE8=Little Big Town - Fine Line (Edit)
TTITLE9=Phil Vassar - I Would
TTITLE10=Brad Paisley - Waitin' On A Woman
TTITLE11=Carolina Rain - American Radio
TTITLE12=Randy Owen - Like I Never Broke Her Heart
TTITLE13=Carter's Chord - Different Breed
TTITLE14=Stephen Cochran - Thinkin' I'm Drinkin'
TTITLE15=Emma Mae - With You
TTITLE16=Darren Kozelsky (Kuh-Zel-Ski) - She Got Me There
TTITLE17=Brynn Marie - Start Now (Ep Version)
TTITLE18=Katy Kiefer - Rainmaker
EXTD=
EXTT0=
EXTT1=
EXTT2=
EXTT3=
EXTT4=
EXTT5=
EXTT6=
EXTT7=
EXTT8=
EXTT9=
EXTT10=
EXTT11=
EXTT12=
EXTT13=
EXTT14=
EXTT15=
EXTT16=
EXTT17=
EXTT18=
PLAYORDER=
